<svg xmlns="http://www.w3.org/2000/svg" width="1200" height="630" viewBox="0 0 1200 630">
  <defs>
    <linearGradient id="bg" x1="0%" y1="0%" x2="100%" y2="100%">
      <stop offset="0%" stop-color="#0a0f1a"/>
      <stop offset="50%" stop-color="#16213e"/>
      <stop offset="100%" stop-color="#0f3460"/>
    </linearGradient>
    <linearGradient id="textGrad" x1="0%" y1="0%" x2="100%" y2="0%">
      <stop offset="0%" stop-color="#00f2c3"/>
      <stop offset="100%" stop-color="#0099ff"/>
    </linearGradient>
    <linearGradient id="accent" x1="0%" y1="0%" x2="100%" y2="100%">
      <stop offset="0%" stop-color="#00f2c3"/>
      <stop offset="100%" stop-color="#64b5f6"/>
    </linearGradient>
  </defs>
  <rect width="1200" height="630" fill="url(#bg)"/>
  <!-- Grid overlay -->
  <g opacity="0.05">
    <line x1="0" y1="0" x2="0" y2="630" stroke="#64b5f6" stroke-width="1"/>
    <line x1="60" y1="0" x2="60" y2="630" stroke="#64b5f6" stroke-width="1"/>
    <line x1="120" y1="0" x2="120" y2="630" stroke="#64b5f6" stroke-width="1"/>
    <line x1="180" y1="0" x2="180" y2="630" stroke="#64b5f6" stroke-width="1"/>
    <line x1="240" y1="0" x2="240" y2="630" stroke="#64b5f6" stroke-width="1"/>
    <line x1="300" y1="0" x2="300" y2="630" stroke="#64b5f6" stroke-width="1"/>
  </g>
  <text x="80" y="250" font-family="system-ui, -apple-system, sans-serif" font-size="72" font-weight="800" fill="url(#textGrad)">AI Body Blueprint</text>
  <text x="80" y="330" font-family="system-ui, -apple-system, sans-serif" font-size="28" fill="rgba(255,255,255,0.7)">Your AI-Powered Body Transformation Starts Here</text>
  <rect x="80" y="370" width="120" height="4" rx="2" fill="url(#accent)"/>
  <text x="80" y="420" font-family="system-ui, -apple-system, sans-serif" font-size="20" fill="rgba(255,255,255,0.5)">No tech skills needed — AI-powered fitness plans that adapt to you</text>
  <text x="80" y="480" font-family="system-ui, -apple-system, sans-serif" font-size="16" fill="rgba(255,255,255,0.3)">ai-body.thealpha-secret.xyz</text>
  <circle cx="1020" cy="315" r="120" fill="none" stroke="rgba(0,242,195,0.1)" stroke-width="2"/>
  <circle cx="1020" cy="315" r="80" fill="none" stroke="rgba(100,181,246,0.15)" stroke-width="1" stroke-dasharray="8,6"/>
  <text x="1020" y="335" font-family="system-ui, -apple-system, sans-serif" font-size="48" text-anchor="middle" fill="url(#accent)">🤖</text>
</svg>
